<?xml version="1.0" standalone="no"?>
<!DOCTYPE svg PUBLIC "-//W3C//DTD SVG 20010904//EN"
 "http://www.w3.org/TR/2001/REC-SVG-20010904/DTD/svg10.dtd">
<svg version="1.0" xmlns="http://www.w3.org/2000/svg"
 width="1000.000000pt" height="1000.000000pt" viewBox="0 0 1000.000000 1000.000000"
 preserveAspectRatio="xMidYMid meet">
<metadata>
Created by potrace 1.15, written by Peter Selinger 2001-2017
</metadata>
<g transform="translate(0.000000,1000.000000) scale(0.100000,-0.100000)"
fill="#000000" stroke="none">
<path d="M5996 7490 c-27 -5 -54 -14 -59 -19 -6 -6 -28 -11 -48 -11 -21 0 -44
-6 -51 -14 -8 -7 -34 -17 -58 -21 -24 -4 -50 -14 -58 -21 -7 -8 -24 -14 -36
-14 -13 0 -29 -7 -36 -15 -7 -8 -22 -15 -35 -15 -12 0 -30 -9 -40 -20 -10 -11
-30 -20 -45 -20 -16 0 -30 -7 -34 -15 -3 -9 -18 -15 -36 -15 -16 0 -30 -5 -30
-11 0 -5 -15 -17 -32 -25 -18 -8 -42 -19 -53 -26 -43 -24 -51 -28 -70 -37 -12
-5 -27 -16 -34 -25 -7 -9 -20 -16 -28 -16 -7 0 -16 -7 -19 -15 -4 -8 -14 -15
-24 -15 -9 0 -25 -9 -35 -20 -10 -11 -24 -20 -30 -20 -7 0 -18 -7 -25 -15 -7
-8 -21 -15 -32 -15 -10 0 -21 -6 -24 -14 -3 -8 -19 -18 -36 -21 -16 -4 -32
-13 -35 -21 -3 -8 -11 -14 -19 -14 -7 0 -17 -6 -21 -13 -4 -7 -20 -18 -35 -24
-16 -7 -28 -17 -28 -23 0 -5 -7 -10 -15 -10 -8 0 -15 -5 -15 -10 0 -6 -7 -13
-15 -17 -23 -8 -79 -57 -166 -143 -76 -75 -114 -108 -179 -155 -61 -44 -172
-149 -180 -170 -11 -28 6 -55 36 -55 13 0 50 8 82 19 31 10 88 22 127 25 38 4
76 12 84 19 21 17 542 17 563 0 8 -7 44 -16 79 -19 35 -3 94 -15 130 -25 36
-10 92 -19 123 -19 l56 0 0 98 c1 65 5 105 15 122 8 14 14 48 15 75 0 31 8 65
20 88 11 20 20 50 20 66 0 16 6 31 15 35 8 3 15 15 15 26 0 11 15 42 33 68 18
26 38 59 46 73 7 15 23 37 35 50 12 13 25 32 29 42 3 9 11 17 17 17 5 0 10 5
10 11 0 14 142 159 156 159 7 0 14 7 18 15 3 8 11 15 19 15 7 0 38 18 67 40
29 22 58 40 64 40 5 0 18 8 28 17 28 26 143 21 173 -7 12 -11 27 -20 33 -20 7
0 35 -16 62 -35 27 -19 53 -35 56 -35 13 0 103 -76 104 -87 0 -7 7 -13 15 -13
8 0 15 -5 15 -11 0 -6 9 -21 20 -33 54 -59 120 -142 120 -151 0 -5 14 -26 30
-45 16 -19 30 -40 30 -46 0 -6 9 -23 20 -37 11 -14 20 -34 20 -45 0 -11 7 -25
15 -32 8 -7 17 -28 21 -49 3 -20 12 -50 20 -68 10 -22 14 -74 15 -175 0 -80 4
-151 9 -158 11 -18 169 -7 212 15 18 8 57 15 92 15 38 0 72 6 91 17 26 14 66
16 290 16 224 0 264 -2 290 -16 18 -10 53 -17 88 -17 35 0 67 -6 81 -15 13 -9
47 -16 77 -18 l54 -2 3 37 c2 24 -2 41 -13 50 -9 7 -33 30 -55 51 -21 20 -43
37 -48 37 -5 0 -12 7 -16 15 -3 8 -11 15 -18 15 -7 0 -28 16 -45 35 -18 19
-34 35 -36 35 -2 0 -29 24 -60 53 -31 28 -80 73 -109 99 -29 25 -71 62 -93 82
-22 20 -48 38 -57 42 -10 3 -18 10 -18 15 0 5 -11 14 -25 19 -14 5 -25 14 -25
20 0 5 -4 10 -9 10 -5 0 -33 16 -62 35 -30 19 -61 35 -70 35 -9 0 -19 6 -22
14 -3 8 -19 17 -35 21 -17 3 -33 13 -36 21 -3 8 -12 14 -19 14 -8 0 -20 7 -27
15 -7 8 -20 15 -29 15 -9 0 -22 9 -29 20 -7 11 -21 20 -31 20 -10 0 -21 7 -25
15 -3 8 -13 15 -22 15 -9 0 -27 9 -41 20 -14 11 -31 20 -38 20 -7 0 -15 7 -19
15 -3 8 -16 15 -29 15 -14 0 -30 7 -37 15 -7 8 -22 15 -35 15 -12 0 -32 9 -45
20 -13 11 -33 20 -45 20 -13 0 -28 7 -35 15 -7 8 -22 15 -33 15 -11 0 -28 7
-38 16 -10 9 -36 18 -58 21 -22 3 -46 12 -52 19 -6 8 -27 14 -46 14 -19 0 -48
8 -66 17 -28 16 -66 18 -287 20 -140 1 -277 -2 -304 -7z"/>
<path d="M4146 6033 c-58 -186 -369 -971 -518 -1308 -44 -99 -81 -181 -82
-183 -18 -17 -267 841 -312 1073 -19 99 -39 199 -44 223 -6 23 -10 85 -10 137
l0 95 -215 0 -215 0 0 -36 c0 -20 21 -88 46 -152 79 -199 137 -387 309 -992
162 -571 275 -993 275 -1031 0 -14 7 -19 30 -19 17 0 30 4 30 10 0 39 477
1250 618 1569 l46 103 69 -138 c38 -77 169 -359 289 -629 276 -615 271 -602
334 -770 47 -126 55 -140 78 -143 21 -3 26 2 32 25 48 211 98 391 325 1179
188 652 281 934 309 934 6 0 10 20 10 45 l0 45 -110 0 -110 0 0 -39 c0 -52
-43 -307 -70 -412 -68 -270 -280 -988 -318 -1079 l-14 -35 -63 126 c-107 212
-508 1104 -580 1287 -64 164 -68 172 -94 172 -25 0 -29 -6 -45 -57z m-964
-928 c136 -478 248 -876 248 -883 0 -7 -7 -29 -16 -50 l-16 -37 -244 855
c-134 470 -253 886 -263 923 l-20 68 32 -3 32 -3 247 -870z m1338 -153 l341
-753 -14 -42 -14 -42 -15 35 c-9 19 -154 341 -323 715 -169 374 -318 703 -330
730 -21 47 -22 54 -9 84 8 19 16 32 18 30 2 -2 158 -343 346 -757z"/>
<path d="M6030 6026 c0 -24 4 -46 10 -48 59 -19 68 -1466 12 -1928 l-7 -55
-110 -17 c-265 -43 -246 -38 -243 -61 l3 -22 560 0 560 0 3 23 c2 12 1 22 -1
22 -21 0 -352 51 -355 55 -13 12 -32 301 -42 640 -18 536 10 1328 47 1342 8 3
13 22 13 49 l0 44 -225 0 -225 0 0 -44z m200 -1046 l0 -1000 -35 0 -35 0 0
1000 0 1000 35 0 35 0 0 -1000z"/>
<path d="M2820 3522 c0 -5 58 -136 128 -293 l128 -284 42 -3 42 -3 86 178 87
178 86 -177 86 -178 41 0 40 0 127 283 c70 155 127 288 127 295 0 8 -25 12
-83 12 l-82 0 -66 -151 -66 -152 -26 54 c-13 30 -46 98 -72 152 l-46 97 -65 0
-65 0 -73 -151 -73 -150 -67 150 -68 151 -84 0 c-46 0 -84 -4 -84 -8z"/>
<path d="M5070 3235 l0 -295 80 0 80 0 0 295 0 295 -80 0 -80 0 0 -295z"/>
<path d="M4045 3336 c-79 -25 -85 -31 -85 -91 0 -30 2 -55 4 -55 3 0 27 14 54
30 53 34 119 43 146 21 29 -25 17 -37 -68 -64 -98 -32 -130 -55 -146 -101 -15
-45 -4 -81 32 -111 24 -20 41 -25 84 -25 30 0 70 6 89 14 29 13 35 13 46 0 15
-19 106 -18 153 1 33 14 36 19 36 55 0 41 -14 52 -37 29 -25 -25 -33 4 -33
116 0 107 -1 115 -26 144 -14 17 -42 35 -62 41 -49 13 -138 12 -187 -4z"/>
<path d="M5620 3339 c-13 -5 -33 -17 -42 -26 -17 -15 -18 -15 -18 5 0 20 -5
22 -70 22 l-70 0 0 -200 0 -200 70 0 70 0 0 128 0 128 29 28 c31 30 74 37 94
17 8 -8 13 -63 15 -156 l3 -145 70 0 69 0 0 148 c0 162 -9 197 -62 235 -31 23
-120 32 -158 16z"/>
<path d="M6062 3329 c-68 -34 -90 -100 -54 -161 12 -20 42 -41 100 -69 45 -21
82 -43 82 -49 0 -26 -65 -23 -167 6 -22 6 -23 3 -23 -44 0 -50 0 -51 38 -61
56 -16 179 -14 216 4 41 20 66 63 66 114 0 55 -42 101 -118 131 -66 27 -84 39
-76 51 9 15 71 10 124 -10 l50 -19 0 49 c0 61 -16 71 -120 76 -62 4 -82 1
-118 -18z"/>
<path d="M7239 3311 l-39 -39 0 34 0 34 -70 0 -70 0 0 -200 0 -201 68 3 67 3
5 95 c8 143 49 200 123 171 18 -6 36 -13 41 -14 8 -2 43 83 45 109 1 15 -64
44 -101 44 -22 0 -41 -11 -69 -39z"/>
<path d="M7640 3334 c-97 -42 -142 -135 -119 -244 14 -66 65 -121 131 -139 63
-18 192 -11 241 13 35 17 37 20 37 68 l0 50 -32 -20 c-100 -61 -208 -44 -232
36 l-7 22 140 0 141 0 0 38 c0 45 -29 109 -61 139 -56 51 -166 69 -239 37z"/>
<path d="M4500 3295 l0 -45 91 0 90 0 -96 -141 c-53 -78 -99 -147 -102 -155
-4 -12 30 -14 211 -14 l216 0 0 50 0 50 -101 0 -100 0 93 138 c52 75 97 143
101 150 7 9 -36 12 -197 12 l-206 0 0 -45z"/>
<path d="M6472 3175 l3 -165 32 -32 c28 -28 40 -33 97 -36 53 -4 72 0 101 17
34 20 35 20 35 1 0 -18 7 -20 70 -20 l70 0 0 200 0 200 -70 0 -70 0 0 -129 0
-129 -31 -26 c-35 -30 -61 -33 -83 -10 -13 12 -16 41 -16 155 l0 139 -71 0
-70 0 3 -165z"/>
</g>
</svg>
